<svg xmlns="http://www.w3.org/2000/svg" xmlns:xlink="http://www.w3.org/1999/xlink" width="24" height="24" viewBox="0 0 24 24" fill="none"><defs><rect id="path_0" x="0" y="0" width="24" height="24" /></defs><g opacity="1" transform="translate(0 0)  rotate(0 12 12)"><mask id="bg-mask-0" fill="white"><use xlink:href="#path_0"></use></mask><g mask="url(#bg-mask-0)" ><path  id="并集" style="stroke:#000000; stroke-width:2; stroke-opacity:1; stroke-dasharray:0 0" transform="translate(5 3)  rotate(0 7 7.5)" d="M0 7C0 3.13 3.13 0 7 0C10.87 0 14 3.13 14 7C14 9.79598 12.3662 12.2057 10 13.3279L10 15L4 15L4 13.3279C1.63376 12.2057 0 9.79598 0 7Z null " /><path id="路径 62"  style="fill:#000000" transform="translate(8 9)  rotate(0 4 1.5)" opacity="1" d="M-0.83205 0.5547Q-0.886683 0.47275 -0.924279 0.381717Q-0.961875 0.290683 -0.980989 0.194064Q-1.0001 0.0974453 -0.999999 -0.00104603Q-0.999896 -0.0995374 -0.980581 -0.196116Q-0.961265 -0.292695 -0.923479 -0.38365Q-0.885692 -0.474604 -0.830888 -0.55644Q-0.776083 -0.638275 -0.706367 -0.707846Q-0.63665 -0.777417 -0.5547 -0.83205Q-0.47275 -0.886683 -0.381717 -0.924279Q-0.290683 -0.961875 -0.194064 -0.980989Q-0.0974453 -1.0001 0.00104603 -0.999999Q0.0995374 -0.999896 0.196116 -0.980581Q0.292695 -0.961265 0.38365 -0.923479Q0.474604 -0.885692 0.55644 -0.830888Q0.638275 -0.776083 0.707846 -0.706367Q0.777417 -0.63665 0.83205 -0.5547L2 1.19722L3.16795 -0.5547Q3.22258 -0.63665 3.29215 -0.706367Q3.36172 -0.776083 3.44356 -0.830888Q3.5254 -0.885692 3.61635 -0.923479Q3.7073 -0.961265 3.80388 -0.980581Q3.90046 -0.999896 3.99895 -0.999999Q4.09745 -1.0001 4.19406 -0.980989Q4.29068 -0.961875 4.38172 -0.924279Q4.47275 -0.886683 4.5547 -0.83205Q4.72111 -0.72111 4.83205 -0.5547L6 1.19722L7.16795 -0.5547Q7.22258 -0.63665 7.29215 -0.706367Q7.36172 -0.776083 7.44356 -0.830888Q7.52539 -0.885692 7.61635 -0.923478Q7.7073 -0.961265 7.80388 -0.98058Q7.90046 -0.999896 7.99895 -0.999999Q8.09744 -1.0001 8.19406 -0.980989Q8.29068 -0.961875 8.38172 -0.924279Q8.47275 -0.886683 8.5547 -0.83205Q8.72021 -0.721714 8.83089 -0.55644Q8.94157 -0.391166 8.98058 -0.196116Q9.01959 -0.00106654 8.98099 0.194064Q8.94239 0.389195 8.83205 0.5547L6.83205 3.5547Q6.72111 3.72111 6.5547 3.83205Q6.47275 3.88668 6.38172 3.92428Q6.29068 3.96187 6.19406 3.98099Q6.09744 4.0001 5.99895 4Q5.90046 3.9999 5.80388 3.98058Q5.7073 3.96126 5.61635 3.92348Q5.52539 3.88569 5.44356 3.83089Q5.36172 3.77608 5.29215 3.70637Q5.22258 3.63665 5.16795 3.5547L4 1.80278L2.83205 3.5547Q2.72111 3.72111 2.5547 3.83205Q2.47275 3.88668 2.38172 3.92428Q2.29068 3.96187 2.19406 3.98099Q2.09745 4.0001 1.99895 4Q1.90046 3.9999 1.80388 3.98058Q1.7073 3.96126 1.61635 3.92348Q1.5254 3.88569 1.44356 3.83089Q1.36172 3.77608 1.29215 3.70637Q1.22258 3.63665 1.16795 3.5547L-0.83205 0.5547Z " /><path  id="路径 62" style="stroke:#000000; stroke-width:2; stroke-opacity:1; stroke-dasharray:0 0" transform="translate(8 9)  rotate(0 4 1.5)" d="" /><path id="路径 61"  style="fill:#000000" transform="translate(9 21)  rotate(0 3 0.5)" opacity="1" d="M0 1Q-0.0984914 1 -0.19509 0.980785Q-0.291689 0.96157 -0.382683 0.923879Q-0.473678 0.886188 -0.55557 0.83147Q-0.637463 0.776751 -0.707107 0.707107Q-0.776751 0.637463 -0.83147 0.55557Q-0.886188 0.473678 -0.923879 0.382683Q-0.96157 0.291689 -0.980785 0.19509Q-1 0.0984914 -1 0Q-1 -0.0984914 -0.980785 -0.19509Q-0.96157 -0.291689 -0.923879 -0.382683Q-0.886188 -0.473678 -0.83147 -0.55557Q-0.776751 -0.637463 -0.707107 -0.707107Q-0.637463 -0.776751 -0.55557 -0.83147Q-0.473678 -0.886188 -0.382683 -0.923879Q-0.291689 -0.96157 -0.19509 -0.980785Q-0.0984914 -1 0 -1L6 -1Q6.09849 -1 6.19509 -0.980785Q6.29169 -0.96157 6.38268 -0.923879Q6.47368 -0.886188 6.55557 -0.83147Q6.63746 -0.776751 6.70711 -0.707107Q6.77675 -0.637463 6.83147 -0.55557Q6.88619 -0.473678 6.92388 -0.382683Q6.96157 -0.291689 6.98078 -0.19509Q7 -0.0984914 7 0Q7 0.0984914 6.98078 0.19509Q6.96157 0.291689 6.92388 0.382683Q6.88619 0.473678 6.83147 0.55557Q6.77675 0.637463 6.70711 0.707107Q6.63746 0.776751 6.55557 0.83147Q6.47368 0.886188 6.38268 0.923879Q6.29169 0.96157 6.19509 0.980785Q6.09849 1 6 1L0 1Z " /><path  id="路径 61" style="stroke:#000000; stroke-width:2; stroke-opacity:1; stroke-dasharray:0 0" transform="translate(9 21)  rotate(0 3 0.5)" d="" /></g></g></svg>