<svg xmlns="http://www.w3.org/2000/svg" xmlns:xlink="http://www.w3.org/1999/xlink" width="24" height="24" viewBox="0 0 24 24" fill="none"><defs><rect id="path_0" x="0" y="0" width="24" height="24" /></defs><g opacity="1" transform="translate(0 0)  rotate(0 12 12)"><mask id="bg-mask-0" fill="white"><use xlink:href="#path_0"></use></mask><g mask="url(#bg-mask-0)" ><path  id="多边形 1" style="stroke:#000000; stroke-width:2; stroke-opacity:1; stroke-dasharray:0 0" transform="translate(3 4)  rotate(0 9.000000000000071 8)" d="M15,0L3,0L0,7L9,16L18,7L15,0Z " /><path id="路径 9"  style="fill:#000000" transform="translate(15 8)  rotate(0 0.5 1)" opacity="100" d="M-0.894427 0.447214Q-0.938474 0.35912 -0.964488 0.264126Q-0.990502 0.169133 -0.997484 0.070889Q-1.00447 -0.0273546 -0.992148 -0.125073Q-0.979829 -0.222791 -0.948683 -0.316228Q-0.917537 -0.409665 -0.868761 -0.49523Q-0.819986 -0.580796 -0.755454 -0.655202Q-0.690922 -0.729607 -0.613115 -0.789994Q-0.535307 -0.85038 -0.447214 -0.894427Q-0.35912 -0.938474 -0.264126 -0.964488Q-0.169133 -0.990502 -0.070889 -0.997484Q0.0273546 -1.00447 0.125073 -0.992148Q0.222791 -0.979829 0.316228 -0.948683Q0.409665 -0.917537 0.49523 -0.868761Q0.580796 -0.819986 0.655202 -0.755454Q0.729607 -0.690922 0.789994 -0.613115Q0.85038 -0.535307 0.894427 -0.447214L1.89443 1.55279Q1.98338 1.7307 1.99748 1.92911Q2.01158 2.12752 1.94868 2.31623Q1.88578 2.50493 1.75545 2.6552Q1.62513 2.80547 1.44721 2.89443Q1.2693 2.98338 1.07089 2.99748Q0.872477 3.01158 0.683772 2.94868Q0.495068 2.88578 0.344798 2.75545Q0.194529 2.62513 0.105573 2.44721L-0.894427 0.447214Z " /><path  id="路径 9" style="stroke:#000000; stroke-width:2; stroke-opacity:1; stroke-dasharray:0 0" transform="translate(15 8)  rotate(0 0.5 1)" d="" /></g></g></svg>