<svg xmlns="http://www.w3.org/2000/svg" xmlns:xlink="http://www.w3.org/1999/xlink" width="24" height="24" viewBox="0 0 24 24" fill="none"><defs><rect id="path_0" x="0" y="0" width="24" height="24" /></defs><g opacity="1" transform="translate(0 0)  rotate(0 12 12)"><mask id="bg-mask-0" fill="white"><use xlink:href="#path_0"></use></mask><g mask="url(#bg-mask-0)" ><path  id="矩形 1" style="stroke:#000000; stroke-width:2; stroke-opacity:1; stroke-dasharray:0 0" transform="translate(3 5)  rotate(0 9 7)" d="M2,14L16,14L18,2L13.5,4L9,0L4.5,4L0,2L2,14Z " /><path id="路径 1"  style="fill:#000000" transform="translate(3 19)  rotate(0 9 0.0005)" opacity="1" d="M17.9999 -1L18 -1Q18.1989 -1 18.3827 -0.92389Q18.5664 -0.84778 18.7071 -0.707146Q18.8477 -0.566502 18.9239 -0.382735Q19 -0.198968 19 -5.55555e-05Q19 0.0984358 18.9808 0.195036Q18.9616 0.291636 18.9239 0.382632Q18.8862 0.473628 18.8315 0.555524Q18.7768 0.63742 18.7071 0.707067Q18.6375 0.776715 18.5556 0.831439Q18.4737 0.886162 18.3827 0.923858Q18.2917 0.961554 18.1951 0.980774Q18.0985 0.999995 18.0001 1L18 0L18 1L5.55e-05 1L5.55556e-05 1.001Q-0.0984358 1.00101 -0.195036 0.981796Q-0.291636 0.962587 -0.382632 0.924901Q-0.473628 0.887215 -0.555524 0.8325Q-0.63742 0.777786 -0.707067 0.708146Q-0.776715 0.638506 -0.831439 0.556616Q-0.886162 0.474727 -0.923858 0.383735Q-0.961554 0.292743 -0.980774 0.196145Q-0.999995 0.099547 -1 0.00105557Q-1.00001 -0.0974358 -0.980796 -0.194036Q-0.961587 -0.290636 -0.923901 -0.381632Q-0.886215 -0.472628 -0.8315 -0.554524Q-0.776786 -0.63642 -0.707146 -0.706067Q-0.637506 -0.775715 -0.555616 -0.830439Q-0.473727 -0.885162 -0.382735 -0.922858Q-0.291743 -0.960554 -0.195145 -0.979774Q-0.098547 -0.998994 -5.55556e-05 -0.999L0 0.000999981L0 -1L17.9999 -1Z " /><path  id="路径 1" style="stroke:#000000; stroke-width:2; stroke-opacity:1; stroke-dasharray:0 0" transform="translate(3 19)  rotate(0 9 0.0005)" d="" /><path id="路径 52"  style="fill:#000000" transform="translate(12 12)  rotate(0 0.5 1)" opacity="1" d="M-1 0Q-1 -0.0984914 -0.980785 -0.19509Q-0.96157 -0.291689 -0.923879 -0.382683Q-0.886188 -0.473678 -0.83147 -0.55557Q-0.776751 -0.637463 -0.707107 -0.707107Q-0.637463 -0.776751 -0.55557 -0.83147Q-0.473678 -0.886188 -0.382683 -0.923879Q-0.291689 -0.96157 -0.19509 -0.980785Q-0.0984914 -1 0 -1Q0.0984914 -1 0.19509 -0.980785Q0.291689 -0.96157 0.382683 -0.923879Q0.473678 -0.886188 0.55557 -0.83147Q0.637463 -0.776751 0.707107 -0.707107Q0.776751 -0.637463 0.83147 -0.55557Q0.886188 -0.473678 0.923879 -0.382683Q0.96157 -0.291689 0.980785 -0.19509Q1 -0.0984914 1 0L1 2Q1 2.09849 0.980785 2.19509Q0.96157 2.29169 0.923879 2.38268Q0.886188 2.47368 0.83147 2.55557Q0.776751 2.63746 0.707107 2.70711Q0.637463 2.77675 0.55557 2.83147Q0.473678 2.88619 0.382683 2.92388Q0.291689 2.96157 0.19509 2.98078Q0.0984914 3 0 3Q-0.0984914 3 -0.19509 2.98078Q-0.291689 2.96157 -0.382683 2.92388Q-0.473678 2.88619 -0.55557 2.83147Q-0.637463 2.77675 -0.707107 2.70711Q-0.776751 2.63746 -0.83147 2.55557Q-0.886188 2.47368 -0.923879 2.38268Q-0.96157 2.29169 -0.980785 2.19509Q-1 2.09849 -1 2L-1 0Z " /><path  id="路径 52" style="stroke:#000000; stroke-width:2; stroke-opacity:1; stroke-dasharray:0 0" transform="translate(12 12)  rotate(0 0.5 1)" d="" /></g></g></svg>