<svg xmlns="http://www.w3.org/2000/svg" xmlns:xlink="http://www.w3.org/1999/xlink" width="24" height="24" viewBox="0 0 24 24" fill="none"><defs><rect id="path_0" x="0" y="0" width="24" height="24" /><rect id="path_1" x="0" y="0" width="24" height="24" /></defs><g opacity="1" transform="translate(0 0)  rotate(0 12 12)"><mask id="bg-mask-0" fill="white"><use xlink:href="#path_0"></use></mask><g mask="url(#bg-mask-0)" ><g opacity="1" transform="translate(0 0)  rotate(0 12 12)"><mask id="bg-mask-1" fill="white"><use xlink:href="#path_1"></use></mask><g mask="url(#bg-mask-1)" ><path  id="矩形 1" style="stroke:#FF5733; stroke-width:2; stroke-opacity:1; stroke-dasharray:0 0" transform="translate(3 4)  rotate(0 9 8.5)" d="M3,14L4.76,14C5.56,14 6.32,14.32 6.88,14.88L7.5,15.5C7.9,15.9 8.44,16.12 9,16.12C9.56,16.12 10.1,15.9 10.5,15.5L11.12,14.88C11.68,14.32 12.44,14 13.24,14L15,14C16.66,14 18,12.66 18,11L18,3C18,1.34 16.66,0 15,0L3,0C1.34,0 0,1.34 0,3L0,11C0,11.8 0.32,12.56 0.88,13.12C1.44,13.68 2.2,14 3,14Z " /><path id="圆形 1" fill-rule="evenodd" style="fill:#FF5733" transform="translate(11 14)  rotate(0 1 1)" opacity="1" d="M1,0C0.45,0 0,0.45 0,1C0,1.55 0.45,2 1,2C1.55,2 2,1.55 2,1C2,0.45 1.55,0 1,0Z " /><path id="圆形 1"  style="fill:#000000" transform="translate(10 8)  rotate(0 2 2)" opacity="100" d="M-1 2Q-1 1.39129 -0.762573 0.832424Q-0.534286 0.295072 -0.119607 -0.119607Q0.295072 -0.534286 0.832424 -0.762573Q1.39129 -1 2 -1Q2.60871 -1 3.16758 -0.762573Q3.70493 -0.534286 4.11961 -0.119607Q4.53429 0.295073 4.76257 0.832424Q5 1.39129 5 2Q5 2.60871 4.76257 3.16758Q4.53429 3.70493 4.11961 4.11961Q3.70493 4.53429 3.16758 4.76257Q2.60871 5 2 5Q1.90151 5 1.80491 4.98078Q1.70831 4.96157 1.61732 4.92388Q1.52632 4.88619 1.44443 4.83147Q1.36254 4.77675 1.29289 4.70711Q1.22325 4.63746 1.16853 4.55557Q1.11381 4.47368 1.07612 4.38268Q1.03843 4.29169 1.01921 4.19509Q1 4.09849 1 4Q1 3.90151 1.01921 3.80491Q1.03843 3.70831 1.07612 3.61732Q1.11381 3.52632 1.16853 3.44443Q1.22325 3.36254 1.29289 3.29289Q1.36254 3.22325 1.44443 3.16853Q1.52632 3.11381 1.61732 3.07612Q1.70831 3.03843 1.80491 3.01921Q1.90151 3 2 3Q2.41079 3 2.70539 2.70539Q3 2.41079 3 2Q3 1.58921 2.70539 1.29461Q2.41079 1 2 1Q1.58921 1 1.29461 1.29461Q1 1.58921 1 2Q1 2.09849 0.980785 2.19509Q0.96157 2.29169 0.923879 2.38268Q0.886188 2.47368 0.83147 2.55557Q0.776751 2.63746 0.707107 2.70711Q0.637463 2.77675 0.55557 2.83147Q0.473678 2.88619 0.382683 2.92388Q0.291689 2.96157 0.19509 2.98078Q0.0984914 3 0 3Q-0.0984914 3 -0.19509 2.98078Q-0.291689 2.96157 -0.382683 2.92388Q-0.473678 2.88619 -0.55557 2.83147Q-0.637463 2.77675 -0.707107 2.70711Q-0.776751 2.63746 -0.83147 2.55557Q-0.886188 2.47368 -0.923879 2.38268Q-0.96157 2.29169 -0.980785 2.19509Q-1 2.09849 -1 2Z " /><path  id="圆形 1" style="stroke:#FF5733; stroke-width:2; stroke-opacity:1; stroke-dasharray:0 0" transform="translate(10 8)  rotate(0 2 2)" d="" /></g></g></g></g></svg>